#!OML:ASF F:\VICON\USERDATA\INSTALL\rory3\rory3.ASF
:FULLY-SPECIFIED
:DEGREES
2762
root 3.95256 18.358 -0.946463 -23.0156 -71.9281 47.4214
lowerback 25.9263 -2.52745 7.71469
upperback 9.43338 -1.78675 6.33704
thorax -3.81195 -1.16874 3.0723
lowerneck -4.73825 -13.4064 -8.78535
upperneck -3.73217 -17.4898 16.0597
head 1.90577 -8.66035 5.3508
rclavicle -6.36111e-015 1.74931e-014
rhumerus 30.4813 0.997737 -66.7469
rradius 26.7128
rwrist -7.91075
rhand -40.4863 -36.7739
rfingers 7.12502
rthumb -13.4365 -66.3205
lclavicle -6.36111e-015 1.74931e-014
lhumerus 18.3562 -62.6715 62.0892
lradius 86.6203
lwrist 99.0072
lhand -0.550401 46.6745
lfingers 7.12502
lthumb 25.0631 75.05
rfemur -50.8404 18.5206 -16.6954
rtibia 39.1748
rfoot -12.7683 -18.1641
rtoes -12.7693
lfemur -27.2144 4.12879 -29.2729
ltibia 26.1401
lfoot -14.4165 9.14733
ltoes -14.0043
2763
root 3.89664 18.3547 -0.987579 -24.5501 -72.1095 48.9194
lowerback 26.0014 -2.52418 7.62996
upperback 9.41174 -1.79583 6.27909
thorax -3.87394 -1.17477 3.06314
lowerneck -4.5453 -13.2741 -8.7733
upperneck -3.53421 -17.3379 16.0672
head 1.91491 -8.58117 5.37195
rclavicle -1.90833e-014 1.04958e-013
rhumerus 29.2666 2.41997 -67.4344
rradius 28.2312
rwrist -8.65063
rhand -40.9612 -36.7769
rfingers 7.12502
rthumb -13.8942 -66.2927
lclavicle -1.90833e-014 1.04958e-013
lhumerus 15.1859 -62.9506 63.3271
lradius 86.8296
lwrist 95.8972
lhand -0.894129 46.3158
lfingers 7.12502
lthumb 24.7337 74.7369
rfemur -50.9241 19.0046 -16.9277
rtibia 39.304
rfoot -13.3727 -18.0838
rtoes -11.6569
lfemur -26.7428 4.55907 -29.4285
ltibia 25.7252
lfoot -14.3383 9.1261
ltoes -14.2422
2764
root 3.83636 18.3506 -1.02464 -26.4676 -72.1544 50.8345
lowerback 25.8562 -2.43649 7.33502
upperback 9.4582 -1.7802 6.28011
thorax -3.74933 -1.17051 3.21635
lowerneck -4.58231 -13.2294 -8.69061
upperneck -3.17949 -17.3048 15.7828
head 1.98475 -8.54804 5.26766
rclavicle 4.45278e-014 8.90555e-014
rhumerus 28.0344 4.01915 -67.7522
rradius 29.8978
rwrist -9.56278
rhand -41.5565 -37.116
rfingers 7.12502
rthumb -14.4679 -66.5916
lclavicle 4.45278e-014 8.90555e-014
lhumerus 12.0864 -63.161 64.7127
lradius 86.8502
lwrist 92.3308
lhand -1.23564 46.0458
lfingers 7.12502
lthumb 24.4063 74.5113
rfemur -50.9388 19.3325 -17.2937
rtibia 39.4038
rfoot -13.6936 -17.9468
rtoes -11.385
lfemur -26.2885 4.96335 -29.805
ltibia 25.394
lfoot -14.2804 9.09843
ltoes -14.2367
2765
root 3.77673 18.3471 -1.05921 -28.0754 -72.296 52.4217
lowerback 25.7509 -2.33339 7.18084
upperback 9.43557 -1.6948 6.34185
thorax -3.72085 -1.1333 3.34246
lowerneck -4.38403 -13.2207 -8.78933
upperneck -2.9514 -17.3119 15.5523
head 2.00561 -8.54728 5.22055
rclavicle 2.8625e-014 -5.88403e-014
rhumerus 26.6054 5.78115 -67.9517
rradius 31.6819
rwrist -10.5349
rhand -42.5821 -37.902
rfingers 7.12502
rthumb -15.4559 -67.3041
lclavicle 2.8625e-014 -5.88403e-014
lhumerus 8.91852 -63.424 66.1943
lradius 86.6971
lwrist 87.6134
lhand -0.707162 46.2157
lfingers 7.12502
lthumb 24.9129 74.612
rfemur -50.994 19.7272 -17.5139
rtibia 39.4574
rfoot -13.8458 -17.9094
rtoes -11.6108
lfemur -25.8552 5.03266 -29.9283
ltibia 25.1144
lfoot -14.1833 9.39403
ltoes -14.352
2766
root 3.71643 18.3442 -1.09282 -29.4687 -72.6794 53.7684
lowerback 25.5933 -2.2495 7.26555
upperback 9.46645 -1.59829 6.33075
thorax -3.61192 -1.08594 3.24556
lowerneck -4.17433 -13.1474 -8.72283
upperneck -2.79865 -17.2333 15.3457
head 1.98098 -8.50932 5.16912
rclavicle 1.27222e-014 0
rhumerus 25.1924 7.59078 -68.3671
rradius 33.4883
rwrist -11.4751
rhand -43.5483 -38.6066
rfingers 7.12502
rthumb -16.3864 -67.9344
lclavicle 1.27222e-014 0
lhumerus 5.93619 -63.6309 67.1923
lradius 86.5074
lwrist 82.361
lhand -0.293784 45.7591
lfingers 7.12502
lthumb 25.3089 74.1
rfemur -51.1848 20.379 -17.6564
rtibia 39.4828
rfoot -14.2319 -17.8033
rtoes -10.4014
lfemur -25.4503 5.25962 -29.8126
ltibia 24.8412
lfoot -14.0029 9.69577
ltoes -15.5845
2767
root 3.65257 18.3403 -1.12386 -31.6088 -72.9855 55.9129
lowerback 25.3055 -2.10942 7.18545
upperback 9.56556 -1.49456 6.24302
thorax -3.36551 -1.03316 3.14673
lowerneck -4.0368 -13.0375 -8.72687
upperneck -2.82773 -17.0866 15.2669
head 1.92585 -8.44205 5.17127
rclavicle 6.36111e-015 -1.1291e-013
rhumerus 23.9265 9.19265 -68.8875
rradius 35.1464
rwrist -12.2237
rhand -44.4628 -39.2078
rfingers 7.12502
rthumb -17.2667 -68.4607
lclavicle 6.36111e-015 -1.1291e-013
lhumerus 3.10654 -63.7258 68.119
lradius 86.2146
lwrist 77.2228
lhand 0.137657 45.1205
lfingers 7.12502
lthumb 25.7222 73.4022
rfemur -51.4031 20.9491 -18.0838
rtibia 39.4968
rfoot -14.7636 -17.3845
rtoes -8.68962
lfemur -25.064 5.51253 -29.9184
ltibia 24.6083
lfoot -13.9395 9.82919
ltoes -16.0495
2768
root 3.59151 18.3435 -1.15996 -33.816 -73.0729 57.9835
lowerback 25.2693 -2.02426 7.00374
upperback 9.64203 -1.45092 6.15756
thorax -3.26506 -1.01377 3.13847
lowerneck -4.00864 -12.9241 -8.82574
upperneck -2.8207 -16.9311 15.1828
head 1.90546 -8.36486 5.1768
rclavicle -9.54166e-015 -7.79236e-014
rhumerus 22.7115 10.835 -69.4261
rradius 36.7335
rwrist -12.9274
rhand -45.4568 -39.9596
rfingers 7.12502
rthumb -18.2231 -69.126
lclavicle -9.54166e-015 -7.79236e-014
lhumerus 0.224018 -63.6999 69.173
lradius 85.9487
lwrist 72.3769
lhand 1.13092 44.0071
lfingers 7.12502
lthumb 26.6731 72.1477
rfemur -51.3479 21.4292 -18.4457
rtibia 39.5249
rfoot -15.0096 -17.0248
rtoes -8.0818
lfemur -24.5291 5.58439 -30.0451
ltibia 24.471
lfoot -14.0658 9.77796
ltoes -15.1859
